Coordinates
version=1
nRows=65
nColumns=12
inDegrees=yes

Units are S.I. units (second, meters, Newtons, ...)
Angles are in degrees

endheader
time	SC_y	SC_z	SC_x	AC_y	AC_z	AC_x	GH_y	GH_z	GH_yy	EL_x	PS_y
       0.0              -11.56          22.44          46.15          69.84         -2.109         -4.306          75.79          24.59          177.9          9.064          107.1
   0.03772              -11.56          22.44          46.15          69.84         -2.107         -4.305          75.77          24.59          177.8          9.076          107.1
   0.07545              -11.56          22.43          46.15          69.83         -2.106         -4.305          75.74          24.58          177.8          9.089          107.1
    0.1132              -11.56          22.43          46.15          69.83         -2.104         -4.304          75.71          24.58          177.7          9.103          107.1
    0.1509              -11.56          22.43          46.14          69.83         -2.102         -4.303          75.68          24.58          177.7          9.118          107.1
    0.1886              -11.56          22.42          46.14          69.82         -2.099         -4.302          75.64          24.57          177.6          9.134          107.1
    0.2263              -11.56          22.42          46.14          69.82         -2.097         -4.301          75.61          24.57          177.6          9.151          107.1
    0.2641              -11.57          22.41          46.13          69.81         -2.095           -4.3          75.57          24.57          177.5          9.169          107.1
    0.3018              -11.57           22.4          46.13          69.81         -2.092         -4.299          75.53          24.56          177.4          9.188          107.1
    0.3395              -11.57           22.4          46.12           69.8         -2.089         -4.298          75.48          24.56          177.3          9.209          107.1
    0.3772              -11.57          22.39          46.12           69.8         -2.086         -4.297          75.44          24.55          177.2          9.231          107.1
     0.415              -11.57          22.39          46.11          69.79         -2.083         -4.295          75.39          24.55          177.1          9.255          107.1
    0.4527              -11.58          22.38          46.11          69.78         -2.079         -4.294          75.33          24.54          177.0          9.281          107.1
    0.4904              -11.58          22.37           46.1          69.77         -2.075         -4.292          75.27          24.54          176.9          9.309          107.0
    0.5281              -11.58          22.36          46.09          69.77         -2.071          -4.29          75.21          24.53          176.8          9.339          107.0
    0.5659              -11.58          22.35          46.09          69.76         -2.066         -4.288          75.14          24.52          176.7          9.372          107.0
    0.6036              -11.59          22.34          46.08          69.75         -2.061         -4.286          75.06          24.52          176.5          9.408          107.0
    0.6413              -11.59          22.33          46.07          69.74         -2.056         -4.284          74.98          24.51          176.4          9.447          107.0
     0.679              -11.59          22.32          46.06          69.72          -2.05         -4.282          74.89           24.5          176.2          9.489          107.0
    0.7168               -11.6           22.3          46.05          69.71         -2.044         -4.279          74.79          24.49          176.0          9.535          107.0
    0.7545               -11.6          22.29          46.04           69.7         -2.036         -4.276          74.68          24.48          175.8          9.586          107.0
    0.7922               -11.6          22.27          46.03          69.68         -2.029         -4.273          74.56          24.47          175.6          9.643          107.0
    0.8299              -11.61          22.26          46.02          69.66          -2.02         -4.269          74.43          24.45          175.4          9.705          106.9
    0.8677              -11.62          22.24           46.0          69.64          -2.01         -4.265          74.29          24.44          175.1          9.773          106.9
    0.9054              -11.62          22.21          45.98          69.62           -2.0         -4.261          74.12          24.42          174.8           9.85          106.9
    0.9431              -11.63          22.19          45.97           69.6         -1.988         -4.256          73.94           24.4          174.5          9.935          106.9
    0.9808              -11.64          22.16          45.94          69.57         -1.975          -4.25          73.74          24.38          174.1          10.03          106.9
     1.019              -11.65          22.13          45.92          69.54          -1.96         -4.244          73.51          24.36          173.7          10.14          106.8
     1.056              -11.65           22.1           45.9          69.51         -1.943         -4.237          73.25          24.33          173.2          10.26          106.8
     1.094              -11.67          22.06          45.87          69.47         -1.924         -4.229          72.96           24.3          172.6           10.4          106.8
     1.132              -11.68          22.01          45.83          69.43         -1.902          -4.22          72.63          24.27          172.0          10.55          106.7
     1.169              -11.69          21.96          45.79          69.38         -1.877          -4.21          72.24          24.23          171.3          10.73          106.7
     1.207              -11.71           21.9          45.75          69.32         -1.848         -4.198           71.8          24.19          170.5          10.94          106.6
     1.245              -11.73          21.83           45.7          69.25         -1.814         -4.184          71.29          24.13          169.5          11.18          106.6
     1.283              -11.75          21.75          45.63          69.17         -1.775         -4.167          70.69          24.07          168.4          11.47          106.5
      1.32              -11.78          21.65          45.56          69.08         -1.728         -4.148          69.98           24.0          167.1           11.8          106.4
     1.358              -11.81          21.53          45.48          68.97         -1.673         -4.125          69.13          23.92          165.5           12.2          106.3
     1.396              -11.85           21.4          45.37          68.84         -1.607         -4.098          68.12          23.82          163.6          12.67          106.2
     1.434               -11.9          21.23          45.25          68.68         -1.527         -4.064           66.9          23.69          161.4          13.25          106.1
     1.471              -11.96          21.03           45.1          68.49         -1.429         -4.024          65.41          23.54          158.6          13.95          105.9
     1.509              -12.03          20.78          44.91          68.25         -1.308         -3.974          63.56          23.36          155.2          14.82          105.7
     1.547              -12.11          20.46          44.68          67.95         -1.158         -3.911          61.27          23.12          150.9           15.9          105.4
     1.584              -12.22          20.07          44.38          67.57        -0.9682         -3.833          58.37          22.83          145.5          17.26          105.0
     1.622              -12.37          19.57          44.01          67.09        -0.7272         -3.733          54.69          22.46          138.7          18.99          104.6
      1.66              -12.55          18.93          43.53          66.47        -0.4187         -3.605          49.98          21.99          129.9          21.21          104.0
     1.698              -12.78           18.1          42.91          65.68       -0.02288          -3.44          43.94          21.38          118.7          24.05          103.3
     1.735              -13.07          17.05          42.13          64.68         0.4828          -3.23          36.21           20.6          104.3          27.69          102.4
     1.773              -13.44          15.73          41.14          63.41          1.119         -2.967          26.51          19.62          86.26          32.26          101.2
     1.811               -13.9          14.12          39.94          61.87          1.893         -2.645          14.67          18.42          64.27          37.82          99.82
     1.848              -14.42          12.25          38.54          60.08          2.792         -2.272          0.959          17.04          38.77          44.28          98.18
     1.886              -14.99          10.23          37.03          58.14          3.764         -1.869         -13.89          15.54          11.16          51.27          96.41
     1.924              -15.56          8.209          35.52           56.2          4.736         -1.465         -28.74          14.04         -16.44          58.25          94.63
     1.962              -16.08          6.342          34.13          54.41          5.635         -1.092         -42.45          12.66         -41.94          64.71           93.0
     1.999              -16.54          4.731          32.92          52.87          6.409        -0.7708         -54.29          11.47         -63.94          70.27          91.58
     2.037              -16.91          3.409          31.94           51.6          7.045        -0.5069          -64.0          10.49         -81.99          74.84          90.43
     2.075               -17.2          2.358          31.15          50.59          7.551         -0.297         -71.72          9.709         -96.34          78.48           89.5
     2.113              -17.43          1.535          30.54           49.8          7.947        -0.1327         -77.76          9.099         -107.6          81.32          88.78
      2.15              -17.61         0.8939          30.06          49.19          8.255       -0.00469         -82.47          8.624         -116.3          83.54          88.22
     2.188              -17.76         0.3929          29.68          48.71          8.496        0.09533         -86.15          8.253         -123.2          85.27          87.78
     2.226              -17.87      -0.001277          29.39          48.33          8.686          0.174         -89.05          7.961         -128.6          86.63          87.44
     2.263              -17.95        -0.3142          29.15          48.03          8.836         0.2365         -91.35          7.729         -132.8          87.71          87.16
     2.301              -18.02        -0.5651          28.97          47.79          8.957         0.2866         -93.19          7.543         -136.3          88.58          86.94
     2.339              -18.08        -0.7684          28.81           47.6          9.055         0.3272         -94.68          7.392         -139.0          89.28          86.76
     2.377              -18.13        -0.9348          28.69          47.44          9.135         0.3604          -95.9          7.269         -141.3          89.86          86.62
     2.414              -18.17         -1.072          28.59           47.3          9.201         0.3878         -96.91          7.167         -143.2          90.33           86.5
